<?xml version="1.0" encoding="UTF-8" standalone="no"?><!DOCTYPE svg PUBLIC "-//W3C//DTD SVG 1.1//EN" "http://www.w3.org/Graphics/SVG/1.1/DTD/svg11.dtd"><svg width="100%" height="100%" viewBox="0 0 52 40" version="1.1" xmlns="http://www.w3.org/2000/svg" xmlns:xlink="http://www.w3.org/1999/xlink" xml:space="preserve" xmlns:serif="http://www.serif.com/" style="fill-rule:evenodd;clip-rule:evenodd;stroke-linecap:round;stroke-linejoin:round;stroke-miterlimit:1.5;"><path d="M25.981,0l-21.11,12.187l21.11,12.188l20.297,-11.719l-20.297,-12.656Z" style="fill:#fff;stroke:#262626;stroke-width:0.75px;"/><path d="M25.981,39.375l0,-15l-21.11,-12.188l-4.871,12.188l25.981,15Z" style="fill:#e1e1e1;stroke:#262626;stroke-width:0.75px;"/><path d="M25.981,24.375l20.297,-11.719l5.472,11.841l-25.769,14.878l0,-15Z" style="fill:#c6c6c6;stroke:#262626;stroke-width:0.75px;"/><path d="M38.971,12.188l-9.743,5.624l-6.495,-3.75l-3.247,1.875l-3.248,-1.875l3.248,-1.875l-3.248,-1.875l3.248,-1.875l3.247,1.875l6.495,-3.75l9.743,5.625Zm-5.683,-1.406l-2.436,-1.406l-2.436,1.406l2.436,1.406l2.436,-1.406Z" style="fill:#262626;"/></svg>